<svg fill="#FB2671" xmlns="http://www.w3.org/2000/svg" viewBox="0 0 683.27 162.85"><g id="Layer_2" data-name="Layer 2"><g id="Layer_1-2" data-name="Layer 1"><path d="M680.68,89.4C672.53,63,647.41,46.55,619.21,49.27,603.51,50.79,602.49,53,609.75,67c7.69,14.82,19.65,25.2,37.88,33.85-14.2,1.43-23.34-.91-31.72-6.12-12.47-7.75-21.5-18.28-24.83-34.56-17.58,14.27-25.2,31.21-23,51.79s12.95,35.72,32.22,45.47c.43-4.19-2.8-9.43,4.74-9.13,22.78.91,43.08-5.34,61.15-24.61-3.37,16.55-11.9,25.21-22.71,32.22L629,162.15c9,2.07,14.29-.84,19.61-3.72h0C676.46,144.08,689.14,116.84,680.68,89.4Zm-95.53-7.55c4-2.4,6.17,2.81,8.67,5.12,18,16.67,27.08,20.85,54.95,24.24-20.38,11.87-49.18,6.71-61.52-10a20.22,20.22,0,0,1-3.71-7.77C582.77,89.5,581.22,84.22,585.15,81.85Zm12.18,54.5a24.9,24.9,0,0,1-10.79-10.18c-1.54-2.64-2.74-5.76-1-8.29,2.28-3.42,5.37-.6,7.78.42,20.83,8.81,41.72,11.23,64.18-.56C644.13,137.39,616.07,145.4,597.33,136.35Z" /><path d="M428.08,81.08c0-22.71,0-45.42,0-68.13,0-6.7-1.23-13.3-9.77-12.86-8.14.41-7.65,7.35-7.7,13.13-.12,13.8,0,27.61-.12,41.41,0,3,.94,6.8-2,8.66-4.05,2.53-6.36-1.66-9.1-3.56-20.82-14.46-42.13-15.48-61.17-2.84-19.4,12.89-28.47,37.61-23,62.61a54.75,54.75,0,0,0,45.25,41.88c18.2,2.57,36.55,1,54.83,1.11,9.84.08,13-5.48,12.89-14.61C427.91,125.61,428.08,103.35,428.08,81.08Zm-57,65.91c-23,.11-40-18.17-39.76-42.66.24-23,18.43-41.67,40.17-41.28s39.36,19.41,39.3,42.37C410.75,128.78,393.47,146.87,371.11,147Z" /><path d="M505.38,48.22C479.45,45.44,453,62.94,447.2,87.49c-5.54,23.65-2.09,45.7,17.58,61.88,19.35,15.94,41.64,16.69,64.28,7.5,6.06-2.46,16.6-4.91,13.25-13.36-4.1-10.32-12.67-3-19.34-.35a75.39,75.39,0,0,1-7.54,2.73c-20.15,5.62-42.42-3.18-50.68-20-5.42-11-3.5-14.6,8.48-14.91,10.7-.27,21.41-.06,32.11-.06v-.14c11.6,0,23.2.14,34.79,0,8-.13,12.19-4,11.92-12.53C551.21,71.88,531.94,51.06,505.38,48.22Zm20,49.69c-8.9-.06-17.81,0-26.72,0v-.13c-9.36,0-18.72.16-28.07,0-7.71-.18-10.11-3.61-7.16-11.27,5.39-14,19-23.51,35.42-23.86,16.17-.34,28.79,8.06,34.47,22.43C536.6,93.21,535.28,98,525.42,97.91Z" /><path d="M99.71,48.16c-14.26-.37-28.53.18-42.79-.15-9.71-.22-13.82,4.11-13.68,13.6.21,14.23,0,28.46,0,42.7s0,28.46,0,42.69c0,6.33-.29,13.68,8.37,14.08,9.82.45,9.46-7.63,9.54-14.26.22-17.35-.14-34.7.24-52,.33-15.29,7.93-24.85,22.4-29.51,24.17-7.78,46,7.36,47.39,33.52.83,16.41.32,32.9.32,49.35,0,6.08.23,12.61,8.08,12.81,8.67.23,9.17-6.68,9.16-13.25,0-16.9.42-33.82-.12-50.7C147.74,67.32,129.15,48.91,99.71,48.16Z" /><path d="M261.28,51.73c-4.5-2.5-8.75-1.37-11.56,3.05a78.37,78.37,0,0,0-4.92,9.45c-8.87,19.4-17.63,38.86-26.55,58.24-1.6,3.48-2.26,8.78-7.1,8.66-4.64-.12-5.46-5.37-7.06-8.82C194.56,101.72,185.3,81,175.8,60.42c-2.19-4.74-3.94-10.35-12-9.76-7.1,1.57-7.37,6.74-4.45,12.87,14.32,30.1,28.53,60.26,43.3,90.15,5,10.18,12.5,10.35,17.46.2,14.85-30.35,28.95-61.07,43.31-91.66C265.25,58.25,265.7,54.17,261.28,51.73Z" /><path d="M18.82,15.15C18.81,8.41,19.33.54,10,0,.23-.52.26,7.84.22,14.3Q-.19,80.94.09,147.6c0,6.37,1.18,13.48,9.68,13.2,8.3-.28,9.06-7.07,9.06-13.68q0-33.33,0-66.65Q18.83,47.82,18.82,15.15Z" /><path d="M298,63.53C298,57.26,298.29,50,289,50.45c-7.65.34-8.91,6.14-8.91,12.42q0,42.75,0,85.5c0,6.4,1.62,12,9,12.54,8.18.55,9-5.8,9-11.88.12-14.69,0-29.39.05-44.08C298.07,91.14,298.17,77.34,298,63.53Z" /><path d="M391,102.62,364,87a3.8,3.8,0,0,0-5.71,3.3v31.27a3.81,3.81,0,0,0,5.71,3.3L391,109.21A3.8,3.8,0,0,0,391,102.62Z" /></g></g></svg>